<?xml version="1.0" standalone="no"?>
<!DOCTYPE svg PUBLIC "-//W3C//DTD SVG 20010904//EN"
 "http://www.w3.org/TR/2001/REC-SVG-20010904/DTD/svg10.dtd">
<svg version="1.0" xmlns="http://www.w3.org/2000/svg"
 width="1200.000000pt" height="630.000000pt" viewBox="0 0 1200.000000 630.000000"
 preserveAspectRatio="xMidYMid meet">

<g transform="translate(0.000000,630.000000) scale(0.100000,-0.100000)"
fill="#000000" stroke="none">
<path d="M3256 6177 c-56 -31 -79 -67 -84 -130 -3 -41 1 -63 17 -95 30 -59 -4
-42 476 -244 72 -31 196 -83 278 -118 l147 -62 0 -1892 0 -1892 23 -90 c35
-131 82 -216 176 -317 77 -83 225 -165 339 -187 34 -7 62 -14 62 -17 0 -2 -12
-26 -26 -54 -66 -132 -84 -322 -44 -474 56 -216 221 -388 451 -472 66 -24 88
-27 204 -27 116 0 138 3 210 28 120 41 181 80 275 175 68 68 94 103 127 171
91 185 95 402 13 578 -16 35 -30 66 -30 68 0 2 340 4 756 4 716 0 756 -1 751
-17 -3 -10 -17 -46 -31 -80 -35 -81 -46 -146 -46 -257 1 -300 178 -539 480
-647 55 -19 85 -23 195 -23 117 0 138 3 210 28 120 41 181 80 275 175 143 144
207 308 198 506 -14 289 -198 525 -486 624 l-77 26 -1705 5 -1705 5 -55 29
c-64 33 -112 75 -147 130 -48 74 -53 112 -53 389 l0 257 48 -25 c26 -14 86
-35 132 -47 l85 -23 1770 0 1770 0 81 22 c241 64 433 258 494 499 19 74 20
114 20 851 0 853 3 817 -63 867 -38 29 -16 25 -782 131 -143 20 -339 47 -435
60 -96 14 -292 41 -435 60 -143 20 -354 49 -470 65 -115 16 -311 43 -435 60
-124 17 -319 44 -435 60 -115 16 -325 45 -465 64 -140 20 -367 51 -505 70
-137 19 -278 38 -312 42 l-63 7 0 317 c0 427 25 386 -320 529 -194 81 -434
182 -613 257 -142 60 -181 65 -241 31z m1387 -1502 c95 -13 307 -43 472 -65
165 -22 379 -52 475 -65 216 -30 534 -74 825 -114 121 -17 335 -46 475 -65
140 -20 354 -49 475 -66 121 -17 319 -44 440 -61 121 -16 326 -45 455 -62
l235 -33 3 -619 c1 -342 -2 -650 -7 -687 -22 -160 -133 -279 -285 -307 -77
-14 -3394 -15 -3479 -1 -116 19 -211 90 -264 198 l-28 57 -3 958 -2 957 21 0
c11 0 98 -11 192 -25z m762 -3571 c72 -25 166 -120 195 -199 30 -82 25 -197
-12 -270 -41 -79 -122 -149 -203 -174 -78 -24 -121 -26 -190 -7 -70 18 -106
39 -156 89 -136 136 -136 348 0 484 50 50 80 67 153 88 62 17 141 13 213 -11z
m2694 1 c89 -31 160 -101 199 -197 32 -82 29 -187 -10 -270 -65 -140 -221
-220 -370 -189 -79 16 -123 39 -177 91 -103 100 -132 252 -74 380 30 66 95
140 145 166 85 44 196 52 287 19z"/>
</g>
</svg>
