<?xml version="1.0" standalone="no"?>
<!DOCTYPE svg PUBLIC "-//W3C//DTD SVG 20010904//EN"
 "http://www.w3.org/TR/2001/REC-SVG-20010904/DTD/svg10.dtd">
<svg version="1.0" xmlns="http://www.w3.org/2000/svg"
 width="1280.000000pt" height="720.000000pt" viewBox="0 0 1280.000000 720.000000"
 preserveAspectRatio="xMidYMid meet">

<g transform="translate(0.000000,720.000000) scale(0.100000,-0.100000)"
fill="#000000" stroke="none">
<path d="M2804 5347 c-11 -13 -93 -106 -183 -206 -314 -347 -567 -665 -736
-921 -423 -645 -579 -1273 -426 -1717 80 -231 292 -461 523 -566 387 -176 938
-150 1620 76 214 72 330 116 618 239 1030 438 7147 3064 7145 3066 -2 2 -43
-7 -92 -21 -48 -13 -133 -36 -188 -51 -55 -14 -224 -59 -375 -100 -151 -40
-378 -101 -505 -135 -126 -33 -367 -97 -535 -142 -168 -45 -386 -103 -485
-129 -99 -26 -299 -79 -445 -118 -453 -121 -784 -209 -1080 -288 -157 -42
-384 -103 -505 -135 -121 -32 -263 -70 -315 -84 -139 -37 -463 -123 -549 -146
-41 -11 -124 -33 -185 -49 -61 -15 -203 -53 -316 -83 -332 -89 -693 -186 -870
-232 -91 -24 -257 -68 -370 -98 -370 -100 -513 -136 -625 -156 -302 -56 -588
-55 -810 0 -314 80 -555 326 -627 642 -30 133 -30 351 1 506 52 263 171 573
311 810 33 56 35 78 4 38z"/>
</g>
</svg>
