<?xml version="1.0" standalone="no"?>
<!DOCTYPE svg PUBLIC "-//W3C//DTD SVG 20010904//EN"
 "http://www.w3.org/TR/2001/REC-SVG-20010904/DTD/svg10.dtd">
<svg version="1.0" xmlns="http://www.w3.org/2000/svg"
 width="452.000000pt" height="452.000000pt" viewBox="0 0 452.000000 452.000000"
 preserveAspectRatio="xMidYMid meet">

<g transform="translate(0.000000,452.000000) scale(0.100000,-0.100000)"
fill="#000000" stroke="none">
<path d="M1765 4243 c-508 -42 -986 -360 -1226 -816 -226 -430 -235 -943 -25
-1381 201 -418 584 -723 1046 -833 155 -37 427 -43 595 -15 202 35 409 115
573 221 34 23 66 41 70 41 4 0 273 -265 597 -590 l590 -590 127 127 128 128
-587 587 -587 587 22 28 c113 143 217 335 272 503 84 257 95 579 29 842 -104
416 -384 776 -764 983 -251 137 -567 203 -860 178z m404 -203 c472 -96 866
-445 1015 -901 54 -165 69 -282 63 -477 -6 -192 -30 -309 -96 -467 -152 -363
-454 -646 -822 -769 -150 -50 -230 -61 -439 -61 -178 0 -204 3 -300 27 -270
68 -484 191 -667 381 -373 389 -482 955 -279 1453 137 336 405 603 741 741
102 41 248 79 353 92 111 14 314 5 431 -19z"/>
</g>
</svg>
