<?xml version="1.0" standalone="no"?>
<!DOCTYPE svg PUBLIC "-//W3C//DTD SVG 20010904//EN"
 "http://www.w3.org/TR/2001/REC-SVG-20010904/DTD/svg10.dtd">
<svg version="1.0" xmlns="http://www.w3.org/2000/svg"
 width="200.000000pt" height="200.000000pt" viewBox="0 0 200.000000 200.000000"
 preserveAspectRatio="xMidYMid meet">

<g transform="translate(0.000000,200.000000) scale(0.100000,-0.100000)"
fill="#000000" stroke="none">
<path d="M570 1295 l0 -45 450 0 450 0 0 45 0 45 -450 0 -450 0 0 -45z"/>
<path d="M577 1023 c-4 -3 -7 -26 -7 -50 l0 -43 448 2 447 3 0 45 0 45 -441 3
c-242 1 -444 -1 -447 -5z"/>
<path d="M572 663 l3 -48 445 0 445 0 0 45 0 45 -448 3 -448 2 3 -47z"/>
</g>
</svg>
